<?xml version="1.0" standalone="no"?>
<!DOCTYPE svg PUBLIC "-//W3C//DTD SVG 20010904//EN"
 "http://www.w3.org/TR/2001/REC-SVG-20010904/DTD/svg10.dtd">
<svg version="1.0" xmlns="http://www.w3.org/2000/svg"
 width="700.000000pt" height="700.000000pt" viewBox="0 0 700.000000 700.000000"
 preserveAspectRatio="xMidYMid meet">
<metadata>
Created by potrace 1.14, written by Peter Selinger 2001-2017
</metadata>
<g transform="translate(0.000000,700.000000) scale(0.100000,-0.100000)"
fill="#000000" stroke="none">
<path d="M3809 6901 c-82 -5 -101 -10 -135 -33 -57 -40 -87 -90 -92 -153 -6
-79 4 -116 44 -164 71 -82 -27 -75 1134 -81 952 -5 1040 -7 1095 -23 195 -58
314 -174 355 -347 8 -30 13 -98 13 -150 -2 -201 -82 -334 -253 -420 -113 -57
-54 -54 -1185 -60 l-1050 -5 -41 -22 c-87 -47 -131 -126 -121 -221 7 -66 41
-121 99 -159 l42 -28 1020 -5 1021 -5 66 -32 c191 -94 339 -272 390 -470 17
-68 21 -122 26 -423 5 -310 7 -350 25 -390 25 -59 44 -79 103 -106 89 -42 175
-27 248 44 56 54 67 105 66 296 0 262 -16 566 -33 641 -45 205 -131 372 -280
538 l-74 84 56 48 c166 138 271 328 302 544 17 116 8 324 -19 426 -88 332
-335 562 -701 653 l-105 26 -960 2 c-528 0 -1003 -2 -1056 -5z"/>
<path d="M373 6875 c-60 -30 -108 -93 -118 -156 -15 -89 35 -187 118 -232 l42
-22 971 -2 970 -2 76 -24 c209 -67 364 -214 440 -418 l23 -64 0 -710 0 -710
-27 -63 c-68 -159 -194 -302 -326 -370 -142 -74 -103 -72 -1162 -72 -593 0
-958 -4 -981 -10 -52 -14 -115 -73 -134 -125 -40 -103 -1 -217 92 -272 l48
-28 315 -3 c173 -1 639 1 1035 6 l720 9 85 27 c192 63 367 176 484 312 136
158 220 308 269 481 22 77 22 86 22 808 0 670 -2 737 -18 815 -31 145 -109
306 -211 438 -133 173 -352 314 -593 384 l-78 23 -1005 3 -1005 3 -52 -26z"/>
<path d="M403 3189 c-49 -14 -100 -71 -110 -121 -16 -75 8 -136 71 -182 27
-21 37 -21 888 -24 l860 -2 39 22 c130 73 106 267 -39 308 -48 13 -1663 12
-1709 -1z"/>
<path d="M2587 3186 c-52 -19 -83 -50 -103 -102 -30 -78 4 -167 78 -205 37
-19 55 -20 288 -17 234 3 250 4 277 24 49 36 73 82 73 136 0 66 -24 114 -73
146 l-40 27 -231 2 c-178 2 -240 0 -269 -11z"/>
<path d="M3556 3185 c-109 -39 -151 -169 -83 -259 54 -70 2 -66 942 -66 940 0
888 -4 942 66 30 40 40 107 24 157 -15 45 -68 93 -118 106 -25 7 -314 11 -853
11 -666 -1 -822 -3 -854 -15z"/>
<path d="M5748 3190 c-75 -22 -118 -84 -118 -168 0 -54 24 -100 73 -136 27
-20 43 -21 277 -24 233 -3 251 -2 288 17 134 68 110 270 -36 311 -43 12 -444
12 -484 0z"/>
<path d="M380 2238 c-53 -27 -80 -62 -89 -114 -13 -72 12 -133 73 -178 27 -21
37 -21 874 -24 574 -2 859 0 883 8 52 15 106 77 114 132 11 76 -28 146 -100
179 -38 18 -86 19 -875 19 l-836 0 -44 -22z"/>
<path d="M2605 2241 c-72 -33 -111 -103 -100 -179 8 -55 62 -117 114 -132 24
-8 309 -10 883 -8 841 3 847 3 875 24 51 38 73 81 73 144 0 71 -27 116 -90
148 l-44 22 -836 0 c-789 0 -837 -1 -875 -19z"/>
<path d="M4865 2241 c-142 -64 -133 -269 13 -311 25 -8 302 -10 883 -8 l846 3
36 28 c53 40 70 79 65 147 -5 69 -35 115 -92 141 -39 18 -83 19 -876 19 -789
0 -837 -1 -875 -19z"/>
<path d="M380 1298 c-63 -32 -90 -77 -90 -148 0 -71 27 -116 90 -147 l44 -23
838 0 c686 0 845 2 871 14 42 17 83 66 98 116 23 75 -27 170 -104 199 -19 8
-299 11 -866 11 l-837 0 -44 -22z"/>
<path d="M2575 1306 c-45 -19 -92 -78 -100 -124 -13 -79 34 -164 108 -191 17
-7 120 -11 256 -11 215 0 229 1 271 23 63 31 90 76 90 147 0 71 -27 116 -90
148 -42 21 -55 22 -275 22 -167 -1 -238 -4 -260 -14z"/>
<path d="M3505 1306 c-72 -31 -115 -122 -94 -198 13 -52 73 -112 119 -122 42
-8 438 -8 480 0 46 10 106 70 119 122 21 77 -23 168 -96 198 -46 20 -484 19
-528 0z"/>
<path d="M390 369 c-109 -44 -138 -204 -52 -282 44 -40 88 -46 317 -46 275 -1
307 10 351 114 31 76 -4 168 -80 204 -39 19 -59 21 -277 20 -130 0 -245 -5
-259 -10z"/>
</g>
</svg>
